<?xml version="1.0" encoding="UTF-8" standalone="no"?>
<!-- Created with Inkscape (http://www.inkscape.org/) -->

<svg
   xmlns:dc="http://purl.org/dc/elements/1.1/"
   xmlns:cc="http://creativecommons.org/ns#"
   xmlns:rdf="http://www.w3.org/1999/02/22-rdf-syntax-ns#"
   xmlns:svg="http://www.w3.org/2000/svg"
   xmlns="http://www.w3.org/2000/svg"
   xmlns:sodipodi="http://sodipodi.sourceforge.net/DTD/sodipodi-0.dtd"
   xmlns:inkscape="http://www.inkscape.org/namespaces/inkscape"
   width="20mm"
   height="20mm"
   viewBox="0 0 20 20"
   version="1.1"
   id="svg8"
   inkscape:version="0.92.1 r15371"
   sodipodi:docname="fav.svg">
  <defs
     id="defs2" />
  <sodipodi:namedview
     id="base"
     pagecolor="#ffffff"
     bordercolor="#666666"
     borderopacity="1.0"
     inkscape:pageopacity="0.0"
     inkscape:pageshadow="2"
     inkscape:zoom="3.4131284"
     inkscape:cx="37.710103"
     inkscape:cy="37.769977"
     inkscape:document-units="mm"
     inkscape:current-layer="layer1"
     showgrid="false"
     inkscape:pagecheckerboard="false"
     showborder="true"
     inkscape:window-width="1024"
     inkscape:window-height="715"
     inkscape:window-x="-8"
     inkscape:window-y="-8"
     inkscape:window-maximized="1" />
  <metadata
     id="metadata5">
    <rdf:RDF>
      <cc:Work
         rdf:about="">
        <dc:format>image/svg+xml</dc:format>
        <dc:type
           rdf:resource="http://purl.org/dc/dcmitype/StillImage" />
        <dc:title></dc:title>
      </cc:Work>
    </rdf:RDF>
  </metadata>
  <g
     inkscape:label="Layer 1"
     inkscape:groupmode="layer"
     id="layer1"
     transform="translate(0,-277)">
    <rect
       style="opacity:1;fill:#ffffff;fill-opacity:1;fill-rule:nonzero;stroke:none;stroke-width:0.81113166;stroke-miterlimit:4;stroke-dasharray:none;stroke-opacity:0"
       id="rect31"
       width="20"
       height="20"
       x="0"
       y="277"
       ry="3.8666666" />
    <path
       style="opacity:1;fill:#ffcc00;fill-opacity:1;fill-rule:nonzero;stroke:none;stroke-width:0.11653312;stroke-miterlimit:4;stroke-dasharray:none;stroke-opacity:0"
       d="m 16.144844,282.5208 c 0.11179,-0.0611 0.198781,-0.17195 0.221583,-0.28241 0.02062,-0.10003 0.02816,-0.78584 0.01669,-1.52402 l -0.02078,-1.34215 -0.167353,-0.12596 c -0.166422,-0.12525 -0.198171,-0.12597 -5.70991,-0.12797 l -5.542547,-0.002 -0.1641599,0.16041 -0.1641598,0.16042 7.86e-4,1.37033 c 3.772e-4,0.75367 0.017168,1.42525 0.037151,1.49237 0.019975,0.0671 0.1273723,0.16943 0.2387939,0.22734 0.188046,0.0977 0.5926683,0.1049 5.6361168,0.0998 4.93531,-0.005 5.4504,-0.0147 5.617577,-0.10609 z"
       id="path21"
       inkscape:connector-curvature="0" />
    <path
       style="opacity:1;fill:#333333;fill-opacity:1;fill-rule:nonzero;stroke:none;stroke-width:0.11653312;stroke-miterlimit:4;stroke-dasharray:none;stroke-opacity:0"
       d="m 11.17452,294.82484 c 0,-0.18444 -0.02897,-0.24229 -0.133888,-0.26713 -0.130333,-0.0308 -0.133887,-0.0828 -0.13412,-1.96218 -1.04e-4,-1.06176 -0.01854,-2.31241 -0.04084,-2.7792 l -0.0406,-0.84873 0.28095,-0.11843 c 0.154515,-0.065 0.341366,-0.18789 0.415229,-0.2728 l 0.134289,-0.15438 -0.709145,-0.0172 -0.70913,-0.0173 v -0.57469 c 0,-0.84909 -0.174598,-1.05703 -1.3282188,-1.5819 -0.4292225,-0.1953 -0.7954852,-0.37188 -0.8138991,-0.39243 -0.018378,-0.0207 -0.1087741,-0.0584 -0.2008107,-0.084 -0.092045,-0.0257 -0.1824299,-0.0634 -0.2008273,-0.0839 -0.01837,-0.0206 -0.3949551,-0.1999 -0.836758,-0.39862 -0.4418116,-0.19873 -0.8186572,-0.38071 -0.8374404,-0.40441 -0.018773,-0.0237 -0.1166771,-0.0619 -0.2175561,-0.0848 -0.1008711,-0.023 -0.183416,-0.0639 -0.183416,-0.0909 0,-0.027 -0.090368,-0.0672 -0.2008194,-0.0892 -0.1104505,-0.0219 -0.2008185,-0.0621 -0.2008185,-0.0892 0,-0.027 -0.082546,-0.068 -0.1834168,-0.0909 -0.1008869,-0.023 -0.1987808,-0.0604 -0.2175561,-0.0833 -0.018852,-0.0229 -0.2349104,-0.12901 -0.4802836,-0.23578 -0.2453739,-0.10678 -0.5315462,-0.26577 -0.6359394,-0.3533 l -0.1898041,-0.15916 -0.020782,-1.14565 -0.020782,-1.14564 0.1843712,-0.15474 c 0.2206931,-0.18522 0.4505892,-0.17695 0.4810625,0.0174 0.01179,0.0749 0.064424,0.1364 0.1171421,0.1364 0.073977,0 0.095752,-0.0967 0.095752,-0.42436 0,-0.32763 -0.021825,-0.42437 -0.095752,-0.42437 -0.052713,0 -0.1053801,0.0602 -0.1171421,0.13375 -0.015966,0.10006 -0.090922,0.1497 -0.2972772,0.19703 -0.3047389,0.0698 -0.4939402,0.18792 -0.4939402,0.30814 0,0.0432 -0.037633,0.0898 -0.083669,0.10369 -0.063065,0.0189 -0.083685,0.30926 -0.083685,1.17643 0,1.34709 0.043168,1.47949 0.562123,1.72441 0.1694636,0.0799 0.3231774,0.15933 0.3415827,0.17635 0.01837,0.0171 0.3949551,0.19274 0.836758,0.39053 0.4418116,0.19779 0.818658,0.37948 0.8374325,0.40379 0.018773,0.0242 0.1166771,0.0629 0.2175561,0.0859 0.1008869,0.023 0.1834239,0.0639 0.1834239,0.0909 0,0.027 0.09036,0.0672 0.2008115,0.0892 0.1104584,0.0219 0.2008352,0.0629 0.2008352,0.0909 0,0.0281 0.090368,0.0689 0.2008185,0.0909 0.1104593,0.0219 0.2008273,0.0621 0.2008273,0.0892 0,0.027 0.082529,0.068 0.183416,0.0909 0.100879,0.023 0.1987736,0.06 0.2175482,0.0825 0.018773,0.0224 0.5142876,0.25647 1.101131,0.52013 0.5868277,0.26364 1.1516465,0.55781 1.2551414,0.65368 0.1819238,0.16854 0.1881583,0.19528 0.1881583,0.80673 v 0.63241 l -0.7070514,0.0173 -0.7070505,0.0172 0.2058977,0.19051 c 0.1132507,0.10477 0.3147358,0.23728 0.4477645,0.29445 0.2416107,0.10382 0.2418194,0.10426 0.2004983,0.41572 -0.022782,0.17148 -0.041642,1.41239 -0.041958,2.75756 -7.86e-4,2.38084 -0.00403,2.4466 -0.1322506,2.47696 -0.1535129,0.0363 -0.2301531,0.20896 -0.1695601,0.38183 0.040116,0.11457 0.1012721,0.12125 1.1090345,0.12125 h 1.066543 z"
       id="path23"
       inkscape:connector-curvature="0" />
    <path
       style="opacity:1;fill:#333333;fill-opacity:1;fill-rule:nonzero;stroke:none;stroke-width:0.01030017;stroke-miterlimit:4;stroke-dasharray:none;stroke-opacity:0"
       d="m 16.876085,281.28669 0.01332,-0.002 -0.0016,-0.40552 -0.0016,-0.40553 -0.102099,-0.002 -0.102099,-0.002 0.0016,0.40872 0.0016,0.40869 0.08876,4.8e-4 c 0.04886,3.4e-4 0.09475,-3.4e-4 0.102098,-0.002 z"
       id="path25"
       inkscape:connector-curvature="0" />
    <path
       style="opacity:1;fill:#e580ff;fill-opacity:1;fill-rule:nonzero;stroke:none;stroke-width:0.09202532;stroke-miterlimit:4;stroke-dasharray:none;stroke-opacity:0"
       d=""
       id="path49"
       inkscape:connector-curvature="0" />
    <path
       style="opacity:1;fill:#e580ff;fill-opacity:1;fill-rule:nonzero;stroke:none;stroke-width:0.09202532;stroke-miterlimit:4;stroke-dasharray:none;stroke-opacity:0"
       d=""
       id="path51"
       inkscape:connector-curvature="0" />
    <path
       style="opacity:1;fill:#e580ff;fill-opacity:1;fill-rule:nonzero;stroke:none;stroke-width:0.09202532;stroke-miterlimit:4;stroke-dasharray:none;stroke-opacity:0"
       d=""
       id="path53"
       inkscape:connector-curvature="0" />
  </g>
</svg>
