<?xml version="1.0" encoding="UTF-8" standalone="no"?>
<!-- Created with Inkscape (http://www.inkscape.org/) -->

<svg
   xmlns:dc="http://purl.org/dc/elements/1.1/"
   xmlns:cc="http://creativecommons.org/ns#"
   xmlns:rdf="http://www.w3.org/1999/02/22-rdf-syntax-ns#"
   xmlns:svg="http://www.w3.org/2000/svg"
   xmlns="http://www.w3.org/2000/svg"
   xmlns:sodipodi="http://sodipodi.sourceforge.net/DTD/sodipodi-0.dtd"
   xmlns:inkscape="http://www.inkscape.org/namespaces/inkscape"
   width="110mm"
   height="25mm"
   viewBox="0 0 110 25"
   version="1.1"
   id="svg8"
   inkscape:version="0.92.1 r15371"
   sodipodi:docname="logo.svg">
  <defs
     id="defs2" />
  <sodipodi:namedview
     id="base"
     pagecolor="#ffffff"
     bordercolor="#666666"
     borderopacity="1.0"
     inkscape:pageopacity="0.0"
     inkscape:pageshadow="2"
     inkscape:zoom="0.99108507"
     inkscape:cx="304.71882"
     inkscape:cy="122.85886"
     inkscape:document-units="mm"
     inkscape:current-layer="layer1"
     showgrid="false"
     inkscape:pagecheckerboard="false"
     showborder="true"
     inkscape:window-width="1024"
     inkscape:window-height="715"
     inkscape:window-x="-8"
     inkscape:window-y="-8"
     inkscape:window-maximized="1" />
  <metadata
     id="metadata5">
    <rdf:RDF>
      <cc:Work
         rdf:about="">
        <dc:format>image/svg+xml</dc:format>
        <dc:type
           rdf:resource="http://purl.org/dc/dcmitype/StillImage" />
        <dc:title></dc:title>
      </cc:Work>
    </rdf:RDF>
  </metadata>
  <g
     inkscape:label="Layer 1"
     inkscape:groupmode="layer"
     id="layer1"
     transform="translate(0,-272)">
    <path
       style="opacity:1;fill:#ffcc00;fill-opacity:1;fill-rule:nonzero;stroke:none;stroke-width:0.14176419;stroke-miterlimit:4;stroke-dasharray:none;stroke-opacity:0"
       d="m 106.69842,278.67867 c 0.13518,-0.0748 0.24037,-0.21043 0.26795,-0.34561 0.0249,-0.12242 0.0341,-0.96168 0.0201,-1.86504 l -0.0251,-1.64249 -0.20239,-0.15415 c -0.20125,-0.15328 -0.23965,-0.15416 -6.904995,-0.15661 l -6.702601,-0.002 -0.198519,0.19629 -0.198518,0.19633 9.48e-4,1.67696 c 4.54e-4,0.92232 0.02074,1.74418 0.04492,1.82631 0.02419,0.0821 0.154033,0.20735 0.288775,0.27822 0.227405,0.1196 0.716712,0.12838 6.815757,0.12208 5.968273,-0.006 6.591183,-0.018 6.793343,-0.12984 z"
       id="path21"
       inkscape:connector-curvature="0" />
    <path
       style="opacity:1;fill:#333333;fill-opacity:1;fill-rule:nonzero;stroke:none;stroke-width:0.14176419;stroke-miterlimit:4;stroke-dasharray:none;stroke-opacity:0"
       d="m 100.68779,293.73598 c 0,-0.22572 -0.0351,-0.29651 -0.16191,-0.32691 -0.15761,-0.0377 -0.16191,-0.1013 -0.16219,-2.40125 -1.2e-4,-1.29935 -0.0224,-2.82985 -0.0494,-3.4011 l -0.0491,-1.03865 0.33975,-0.14493 c 0.18685,-0.0797 0.41282,-0.22994 0.50214,-0.33386 l 0.16239,-0.18891 -0.85757,-0.0211 -0.85755,-0.0211 v -0.70331 c 0,-1.03908 -0.21114,-1.29356 -1.606218,-1.93588 -0.519053,-0.23899 -0.961978,-0.45509 -0.984251,-0.48023 -0.02221,-0.0252 -0.131533,-0.0714 -0.242837,-0.1028 -0.111313,-0.0314 -0.220613,-0.0777 -0.242856,-0.10273 -0.02221,-0.0251 -0.477627,-0.24463 -1.011894,-0.48781 -0.534287,-0.24321 -0.990007,-0.4659 -1.012724,-0.49491 -0.02271,-0.029 -0.141089,-0.0757 -0.263085,-0.10374 -0.121976,-0.0281 -0.221809,-0.0782 -0.221809,-0.11128 0,-0.0331 -0.10928,-0.0822 -0.242846,-0.10913 -0.133567,-0.0268 -0.242847,-0.076 -0.242847,-0.10913 0,-0.0331 -0.09982,-0.0832 -0.221809,-0.11126 -0.122005,-0.0281 -0.240388,-0.074 -0.263094,-0.102 -0.02281,-0.028 -0.284076,-0.15789 -0.580797,-0.28855 -0.296732,-0.13067 -0.642796,-0.32524 -0.769047,-0.43236 l -0.229519,-0.19477 -0.02517,-1.40201 -0.02508,-1.40199 0.222954,-0.18938 c 0.266886,-0.22667 0.544899,-0.21654 0.581744,0.0213 0.01422,0.0918 0.0779,0.16692 0.141662,0.16692 0.08944,0 0.115796,-0.11839 0.115796,-0.51932 0,-0.40095 -0.02636,-0.51933 -0.115796,-0.51933 -0.06378,0 -0.127436,0.0737 -0.141662,0.16369 -0.01935,0.12243 -0.109952,0.18319 -0.359492,0.24111 -0.368515,0.0855 -0.597323,0.22997 -0.597323,0.37709 0,0.0529 -0.04552,0.10991 -0.101175,0.12689 -0.07622,0.0232 -0.101204,0.3786 -0.101204,1.43981 0,1.64853 0.05222,1.81056 0.679779,2.11029 0.204926,0.0978 0.390808,0.19498 0.413071,0.21581 0.02222,0.0208 0.477618,0.23587 1.011884,0.47792 0.534287,0.24204 0.990007,0.4644 1.012714,0.49414 0.02271,0.0297 0.1411,0.077 0.263086,0.10508 0.122005,0.0281 0.221817,0.0782 0.221817,0.11127 0,0.0331 0.10927,0.0822 0.242837,0.10914 0.133577,0.0268 0.242876,0.077 0.242876,0.11128 0,0.0343 0.10928,0.0844 0.242847,0.11129 0.133577,0.0268 0.242857,0.076 0.242857,0.10913 0,0.0331 0.0998,0.0832 0.221808,0.11127 0.121996,0.0281 0.240378,0.0735 0.263086,0.10092 0.02271,0.0274 0.621926,0.31386 1.331599,0.63651 0.709644,0.32265 1.392674,0.68264 1.517836,0.79997 0.219996,0.20625 0.227537,0.23898 0.227537,0.98725 v 0.77392 l -0.855036,0.0211 -0.855032,0.0211 0.248997,0.23314 c 0.136952,0.12821 0.380609,0.29038 0.54147,0.36034 0.29218,0.12706 0.292435,0.12759 0.24247,0.50874 -0.02759,0.20986 -0.05037,1.72844 -0.05076,3.37463 -9.62e-4,2.91359 -0.0049,2.99407 -0.159938,3.03121 -0.185643,0.0444 -0.278317,0.25573 -0.205043,0.46728 0.04847,0.1402 0.12247,0.14838 1.341154,0.14838 h 1.289763 z"
       id="path23"
       inkscape:connector-curvature="0" />
    <path
       style="opacity:1;fill:#333333;fill-opacity:1;fill-rule:nonzero;stroke:none;stroke-width:0.01253031;stroke-miterlimit:4;stroke-dasharray:none;stroke-opacity:0"
       d="m 107.58271,277.16841 0.0161,-0.003 -0.002,-0.49628 -0.002,-0.49627 -0.12347,-0.002 -0.12346,-0.002 0.002,0.50018 0.002,0.50015 0.10734,5.9e-4 c 0.059,4.1e-4 0.11459,-4.1e-4 0.12347,-0.002 z"
       id="path25"
       inkscape:connector-curvature="0" />
    <path
       style="opacity:1;fill:#000000;fill-opacity:1;fill-rule:nonzero;stroke:none;stroke-width:0.14182572;stroke-miterlimit:4;stroke-dasharray:none;stroke-opacity:0"
       d="m 103.43987,293.02872 c 0.64749,-0.22521 0.95731,-0.59714 1.24271,-1.49181 0.16349,-0.51252 0.19289,-0.84066 0.19702,-2.19862 0.006,-1.87466 0.1509,-2.7923 0.51691,-3.26638 0.0755,-0.0978 0.1376,-0.21375 0.13791,-0.25757 2.8e-4,-0.0438 0.0337,-0.0796 0.0742,-0.0796 0.0405,0 0.12169,-0.086 0.18045,-0.19118 0.10079,-0.18042 0.0936,-0.19119 -0.12701,-0.19119 -0.1286,0 -0.3053,-0.025 -0.39269,-0.0556 -0.0873,-0.0306 -0.51222,-0.0758 -0.94413,-0.1004 l -0.78527,-0.0448 0.12479,0.14819 c 0.1579,0.18747 0.17267,2.03163 0.0174,2.1641 -0.0562,0.048 -0.13127,0.21615 -0.16686,0.37388 -0.0667,0.29554 -0.38459,1.08093 -0.52879,1.30642 -0.0448,0.0701 -0.11061,0.22688 -0.14617,0.34842 -0.0355,0.12151 -0.10059,0.26491 -0.14453,0.31863 -0.14536,0.17773 -0.2967,0.91564 -0.33839,1.65 -0.0416,0.73263 -0.0281,0.78152 0.36992,1.33096 0.16616,0.2294 0.45627,0.32573 0.71256,0.23658 z m -0.54067,-0.88513 c -0.14511,-0.11815 -0.0372,-0.9165 0.14678,-1.08655 0.0994,-0.0919 0.22872,-0.11769 0.52969,-0.10569 0.21898,0.009 0.43089,0.0502 0.47091,0.0921 0.0996,0.10433 -0.0257,1.00801 -0.15343,1.10685 -0.14331,0.11089 -0.8554,0.10606 -0.99395,-0.007 z"
       id="path27"
       inkscape:connector-curvature="0" />
    <path
       style="opacity:1;fill:#ffcc00;fill-opacity:1;fill-rule:nonzero;stroke:none;stroke-width:0.14182572;stroke-miterlimit:4;stroke-dasharray:none;stroke-opacity:0"
       d="m 108.50045,282.65981 c 0.045,-0.10077 0.21843,-0.88977 0.33276,-1.51353 0.0481,-0.26288 0.11452,-0.5387 0.14741,-0.61293 0.048,-0.10827 0.0132,-0.14099 -0.17653,-0.16548 -0.25481,-0.0329 -0.34126,0.0697 -0.34379,0.40821 -5.3e-4,0.0943 -0.0387,0.18713 -0.0845,0.20623 -0.0459,0.0191 -0.11182,0.21529 -0.14679,0.43597 -0.0659,0.41569 -0.18016,0.61924 -0.30158,0.5372 -0.096,-0.0649 -0.0411,-0.69911 0.0671,-0.77416 0.048,-0.0332 0.0873,-0.24191 0.0873,-0.46359 0,-0.37403 -0.0175,-0.40755 -0.24195,-0.46522 -0.4283,-0.11002 -0.48159,-0.08 -0.598,0.33615 -0.0612,0.21905 -0.14139,0.50691 -0.17808,0.63965 -0.0366,0.13274 -0.1084,0.23312 -0.15938,0.22304 -0.1057,-0.0208 -0.1062,-0.51021 -9.8e-4,-0.95829 0.0459,-0.19517 0.0368,-0.30271 -0.0254,-0.30271 -0.13086,0 -0.21099,0.15788 -0.21099,0.41568 0,0.11775 -0.0423,0.23181 -0.0943,0.25346 -0.0519,0.0217 -0.0945,0.14524 -0.0948,0.27461 -5.2e-4,0.31256 -0.1757,0.72589 -0.28753,0.67919 -0.11271,-0.0471 -0.11676,-0.51256 -0.006,-0.65527 0.0459,-0.0589 0.10018,-0.31285 0.12054,-0.56405 l 0.037,-0.4567 -0.33278,-0.0401 c -0.18303,-0.022 -0.50834,-0.0559 -0.72291,-0.0749 l -0.39014,-0.0348 -0.0544,0.24481 c -0.20987,0.94331 -0.30619,1.29259 -0.36786,1.33392 -0.0389,0.0261 -0.0708,0.1 -0.0708,0.16423 0,0.0642 -0.0423,0.11684 -0.0943,0.11684 -0.0519,0 -0.0936,-0.0645 -0.0927,-0.1434 0.002,-0.19046 0.15685,-1.15689 0.23961,-1.49761 l 0.0658,-0.27084 h -0.37862 c -0.42388,0 -0.38268,-0.0549 -0.60964,0.80958 -0.10703,0.40757 -0.28028,0.66739 -0.39224,0.58819 -0.059,-0.0418 0.0948,-1.28591 0.17488,-1.41371 0.0605,-0.0967 0.0133,-0.11152 -0.3556,-0.11152 h -0.42536 l -0.0529,0.30271 c -0.23451,1.34259 -0.30448,1.66946 -0.36619,1.71063 -0.0389,0.0259 -0.0707,0.11412 -0.0707,0.1959 0,0.13719 0.0389,0.1487 0.50305,0.1487 0.27668,0 0.53441,0.0214 0.57274,0.0479 0.0383,0.0263 0.52289,0.0826 1.07682,0.12525 2.26093,0.17384 3.38582,0.27426 3.76073,0.33569 0.49629,0.0814 0.49916,0.0813 0.54202,-0.0148 z"
       id="path29"
       inkscape:connector-curvature="0" />
    <path
       style="opacity:1;fill:#e580ff;fill-opacity:1;fill-rule:nonzero;stroke:none;stroke-width:0.02507149;stroke-miterlimit:4;stroke-dasharray:none;stroke-opacity:0"
       d="m 105.26057,284.55167 c -0.0298,-0.002 -0.0785,-0.002 -0.10838,0 -0.0299,0.002 -0.005,0.005 0.0541,0.005 0.0595,0 0.084,-0.002 0.0541,-0.005 z"
       id="path31"
       inkscape:connector-curvature="0" />
    <path
       style="opacity:1;fill:#333333;fill-opacity:1;fill-rule:nonzero;stroke:none;stroke-width:0.02507149;stroke-miterlimit:4;stroke-dasharray:none;stroke-opacity:0"
       d="m 108.04095,284.88209 c 0,-0.0146 -0.0193,-0.0181 -0.10056,-0.0181 -0.11561,0 -0.19071,-0.0183 -0.24832,-0.0604 l -0.0405,-0.0297 -0.40144,-3.6e-4 c -0.46314,-5.6e-4 -0.52533,-0.006 -0.59866,-0.0536 l -0.0529,-0.0342 -0.40017,-0.004 c -0.42444,-0.005 -0.46632,-0.009 -0.4845,-0.0582 l -0.01,-0.026 -0.4889,-0.007 c -0.2689,-0.004 -0.50813,-0.0122 -0.53163,-0.0181 -0.0235,-0.006 -0.0545,-0.0264 -0.069,-0.0453 l -0.0262,-0.0343 -0.38725,-5e-5 c -0.42982,-8e-5 -0.50106,-0.007 -0.54219,-0.0559 l -0.027,-0.0318 -0.46761,-0.005 c -0.3895,-0.004 -0.47832,-0.008 -0.53164,-0.0236 -0.0353,-0.0104 -0.068,-0.0291 -0.0727,-0.0415 -0.009,-0.0216 -0.0225,-0.0227 -0.30279,-0.0233 -0.32184,-5.5e-4 -0.50947,-0.0109 -0.53689,-0.0295 -0.01,-0.007 -0.0238,-0.0367 -0.0314,-0.067 l -0.0136,-0.0551 -0.002,0.0804 -0.002,0.0803 0.26261,0.005 c 0.28018,0.005 0.35725,0.0185 0.37927,0.0653 0.0103,0.0217 0.0246,0.0226 0.37407,0.0226 0.43447,0 0.52593,0.009 0.58596,0.0562 l 0.0428,0.0339 0.31559,5.4e-4 c 0.17358,3.5e-4 0.38154,0.005 0.46212,0.01 0.13252,0.008 0.15165,0.012 0.20009,0.0434 l 0.0535,0.0348 0.40851,0.008 c 0.22468,0.005 0.42223,0.0127 0.43902,0.0186 0.0168,0.006 0.0379,0.0251 0.0471,0.0427 l 0.0165,0.0321 0.48653,0.004 c 0.51929,0.005 0.56941,0.01 0.58831,0.0603 0.009,0.0247 0.0119,0.0249 0.44563,0.0296 0.46228,0.005 0.4995,0.009 0.5278,0.0593 0.0146,0.0261 0.0174,0.0263 0.34519,0.0312 0.18172,0.003 0.34351,0.009 0.35957,0.0137 0.021,0.006 0.0293,0.004 0.0293,-0.009 z"
       id="path33"
       inkscape:connector-curvature="0" />
    <path
       style="opacity:1;fill:#1a1a1a;fill-opacity:1;fill-rule:nonzero;stroke:none;stroke-width:0.02507149;stroke-miterlimit:4;stroke-dasharray:none;stroke-opacity:0"
       d="m 108.45588,283.19507 c -0.002,-0.0841 -0.005,-0.10472 -0.0141,-0.0739 -0.007,0.0235 -0.02,0.0481 -0.0296,0.0545 -0.0114,0.008 -0.17349,0.0103 -0.47353,0.008 -0.48416,-0.005 -0.52423,-0.009 -0.56471,-0.0597 -0.0202,-0.0256 -0.0225,-0.0257 -0.4562,-0.0301 -0.46192,-0.005 -0.50179,-0.009 -0.52014,-0.0585 l -0.01,-0.026 -0.45322,-0.007 c -0.24926,-0.004 -0.47902,-0.0122 -0.51056,-0.0186 -0.0315,-0.006 -0.078,-0.0267 -0.10328,-0.0454 l -0.0459,-0.0339 -0.39694,-0.002 c -0.21833,-5.6e-4 -0.41933,-0.005 -0.44671,-0.009 -0.0302,-0.005 -0.063,-0.0211 -0.0833,-0.0424 l -0.0336,-0.0351 -0.44187,-0.005 c -0.37715,-0.005 -0.4523,-0.008 -0.5132,-0.0252 -0.0392,-0.0112 -0.0783,-0.0291 -0.0869,-0.0398 -0.0139,-0.0174 -0.0587,-0.0201 -0.42182,-0.0253 -0.34339,-0.005 -0.41608,-0.009 -0.46909,-0.0259 -0.0345,-0.011 -0.0714,-0.0295 -0.0818,-0.0409 -0.0143,-0.0155 -0.0404,-0.0209 -0.10274,-0.0215 -0.0459,-3.5e-4 -0.11332,-0.005 -0.14975,-0.009 -0.0592,-0.007 -0.0684,-0.0127 -0.0867,-0.0529 -0.0191,-0.042 -0.0201,-0.0382 -0.0172,0.0589 l 0.003,0.10396 0.47522,0.003 c 0.50676,0.004 0.55253,0.008 0.58646,0.0587 l 0.0192,0.0284 0.34331,7e-5 c 0.42459,8e-5 0.52794,0.01 0.58509,0.0544 l 0.0417,0.0325 0.44664,0.007 c 0.2797,0.005 0.45978,0.0118 0.4818,0.0197 0.0193,0.007 0.0518,0.0257 0.0722,0.0418 l 0.037,0.0291 0.39826,0.005 c 0.41105,0.005 0.49833,0.0122 0.51445,0.0466 0.0189,0.04 0.0742,0.0451 0.53483,0.0485 0.39334,0.003 0.45654,0.006 0.49479,0.0227 0.0242,0.0107 0.0484,0.0291 0.0539,0.0408 0.01,0.02 0.0361,0.0217 0.43061,0.027 0.25085,0.003 0.43915,0.0107 0.46664,0.0182 0.0252,0.007 0.0541,0.0245 0.0641,0.0392 0.017,0.0252 0.0289,0.0271 0.21454,0.0339 0.1081,0.004 0.20871,0.0104 0.22356,0.0142 0.024,0.006 0.0267,-0.006 0.025,-0.10967 z"
       id="path35"
       inkscape:connector-curvature="0" />
    <path
       style="opacity:1;fill:#e580ff;fill-opacity:1;fill-rule:nonzero;stroke:none;stroke-width:0.02507149;stroke-miterlimit:4;stroke-dasharray:none;stroke-opacity:0"
       d="m 101.49884,284.65558 c -5e-5,-0.0558 -0.003,-0.0772 -0.007,-0.0476 -0.004,0.0297 -0.004,0.0753 1e-4,0.10138 0.004,0.0261 0.007,0.002 0.007,-0.0539 z"
       id="path37"
       inkscape:connector-curvature="0" />
    <path
       style="opacity:1;fill:#e580ff;fill-opacity:1;fill-rule:nonzero;stroke:none;stroke-width:0.05014297;stroke-miterlimit:4;stroke-dasharray:none;stroke-opacity:0"
       d="m 101.64854,284.00219 c 0,-0.093 -0.006,-0.13095 -0.0131,-0.0845 -0.007,0.0465 -0.007,0.12252 0,0.169 0.007,0.0465 0.0131,0.008 0.0131,-0.0845 z"
       id="path39"
       inkscape:connector-curvature="0" />
    <path
       style="opacity:1;fill:#999999;fill-opacity:1;fill-rule:nonzero;stroke:none;stroke-width:0.05014297;stroke-miterlimit:4;stroke-dasharray:none;stroke-opacity:0"
       d="m 107.94934,284.66123 c 0.01,-0.0216 0.031,-0.056 0.0468,-0.0762 0.0158,-0.0202 0.0384,-0.16214 0.0505,-0.31544 0.014,-0.17852 0.0448,-0.32537 0.0856,-0.40839 0.0638,-0.12957 0.087,-0.40872 0.0383,-0.45879 -0.0148,-0.0153 -0.18937,-0.0294 -0.44482,-0.0358 -0.31816,-0.008 -0.4395,-0.0197 -0.49928,-0.0482 -0.0595,-0.0282 -0.15386,-0.0373 -0.38384,-0.0373 -0.31523,0 -0.64687,-0.0315 -0.67904,-0.0644 -0.0101,-0.0104 -0.21938,-0.0252 -0.46502,-0.0329 -0.31789,-0.0101 -0.46207,-0.0234 -0.50022,-0.0466 -0.0375,-0.0227 -0.18342,-0.0371 -0.48712,-0.0481 -0.27201,-0.01 -0.47079,-0.0279 -0.53357,-0.0489 -0.0629,-0.0209 -0.26285,-0.0392 -0.53827,-0.0492 -0.29885,-0.0109 -0.45627,-0.0259 -0.49496,-0.0477 -0.0392,-0.0219 -0.18872,-0.0357 -0.48423,-0.0446 -0.34405,-0.0103 -0.44027,-0.0206 -0.49277,-0.0527 -0.0632,-0.0387 -0.0659,-0.0377 -0.0863,0.0314 -0.0117,0.0391 -0.0211,0.13331 -0.0212,0.20921 -1.3e-4,0.0839 -0.0213,0.16449 -0.0541,0.2056 -0.0375,0.0471 -0.0604,0.15748 -0.0757,0.36439 -0.0173,0.23489 -0.0338,0.30576 -0.0793,0.33974 -0.0316,0.0236 -0.0575,0.0649 -0.0575,0.0919 0,0.045 0.0168,0.049 0.20842,0.0491 0.21898,9e-5 0.45854,0.0343 0.45854,0.0653 0,0.0101 0.20958,0.0234 0.46572,0.0297 0.33125,0.008 0.48773,0.021 0.54191,0.0447 0.0509,0.0222 0.21264,0.0383 0.48655,0.0481 0.22587,0.008 0.44326,0.0274 0.48354,0.0429 0.0403,0.0155 0.28801,0.0388 0.55059,0.052 0.29414,0.0146 0.4867,0.0339 0.50161,0.0502 0.0152,0.0167 0.19994,0.0335 0.50058,0.0455 0.32283,0.0129 0.48481,0.0281 0.50254,0.0477 0.0179,0.0195 0.17596,0.0339 0.49746,0.0456 0.36678,0.0132 0.4849,0.0253 0.53249,0.0545 0.088,0.0539 0.40135,0.0524 0.42625,-0.002 z"
       id="path41"
       inkscape:connector-curvature="0" />
    <path
       style="opacity:1;fill:#999999;fill-opacity:1;fill-rule:nonzero;stroke:none;stroke-width:0.05014297;stroke-miterlimit:4;stroke-dasharray:none;stroke-opacity:0"
       d="m 107.84233,285.28441 c 0.0295,-0.0398 0.0535,-0.1102 0.0535,-0.15633 v -0.0839 l -0.18649,-0.0104 c -0.10258,-0.006 -0.19735,-0.0223 -0.21062,-0.0368 -0.0152,-0.0167 -0.18277,-0.0316 -0.45548,-0.0405 -0.28269,-0.009 -0.46579,-0.0259 -0.53137,-0.0484 -0.0662,-0.0226 -0.24855,-0.0389 -0.53933,-0.0482 -0.33755,-0.0107 -0.45341,-0.0223 -0.50022,-0.0507 -0.048,-0.029 -0.15298,-0.0384 -0.49445,-0.0448 -0.33064,-0.006 -0.45331,-0.0169 -0.51689,-0.0451 -0.0629,-0.0279 -0.18705,-0.0391 -0.50666,-0.0457 -0.32561,-0.007 -0.4372,-0.0171 -0.48355,-0.0446 -0.0463,-0.0275 -0.16089,-0.0382 -0.49378,-0.0459 -0.29934,-0.007 -0.46964,-0.0212 -0.55023,-0.0461 -0.0643,-0.0198 -0.23219,-0.0394 -0.37333,-0.0437 -0.27616,-0.008 -0.29193,-9.9e-4 -0.29318,0.13124 -2.8e-4,0.0264 -0.023,0.0605 -0.0505,0.076 -0.0275,0.0154 -0.05,0.0471 -0.05,0.0703 0,0.0331 0.0247,0.0423 0.11264,0.0423 0.062,0 0.12955,0.0138 0.15023,0.0306 0.0268,0.0218 0.16627,0.0339 0.487,0.0422 0.31487,0.008 0.47205,0.0215 0.52506,0.0448 0.0516,0.0226 0.2122,0.0375 0.5038,0.0467 0.2878,0.009 0.45223,0.0241 0.50165,0.046 0.0485,0.0214 0.22042,0.038 0.50561,0.0486 0.27581,0.0102 0.45882,0.0275 0.50599,0.0477 0.0472,0.0202 0.24317,0.0386 0.54251,0.051 0.35761,0.0148 0.48291,0.0281 0.529,0.0564 0.0482,0.0295 0.13663,0.037 0.44126,0.0378 0.27271,5.6e-4 0.41875,0.0115 0.51426,0.0377 0.0821,0.0226 0.26347,0.0401 0.47172,0.0455 l 0.33835,0.009 z"
       id="path43"
       inkscape:connector-curvature="0" />
    <path
       style="opacity:1;fill:#999999;fill-opacity:1;fill-rule:nonzero;stroke:none;stroke-width:0.05014297;stroke-miterlimit:4;stroke-dasharray:none;stroke-opacity:0"
       d="m 108.32935,282.95666 v -0.14429 l -0.46341,-0.008 c -0.371,-0.006 -0.47575,-0.0152 -0.52524,-0.0448 -0.0488,-0.0293 -0.1542,-0.0389 -0.50144,-0.0459 -0.34166,-0.007 -0.45315,-0.0168 -0.50022,-0.0448 -0.0468,-0.0279 -0.16098,-0.0383 -0.50213,-0.0462 -0.33244,-0.008 -0.45603,-0.0188 -0.50022,-0.0448 -0.0436,-0.0257 -0.17214,-0.0377 -0.50283,-0.0473 -0.29963,-0.009 -0.46784,-0.023 -0.5169,-0.0446 -0.0465,-0.0204 -0.22253,-0.0378 -0.48749,-0.0482 -0.2713,-0.0106 -0.45005,-0.0286 -0.51677,-0.052 -0.0703,-0.0245 -0.22672,-0.0387 -0.50232,-0.0455 -0.32011,-0.008 -0.4179,-0.0181 -0.48823,-0.0517 -0.0484,-0.023 -0.0971,-0.0357 -0.10838,-0.028 -0.0113,0.008 -0.0204,0.0712 -0.0204,0.14126 v 0.12744 l 0.48204,0.0229 c 0.2882,0.0137 0.50219,0.0343 0.53218,0.0511 0.0305,0.0171 0.21777,0.0343 0.4777,0.0439 0.32105,0.0118 0.44779,0.0254 0.50901,0.0545 0.0647,0.0306 0.15702,0.0387 0.44924,0.0391 0.3734,5.6e-4 0.61129,0.0236 0.64775,0.0629 0.0111,0.012 0.20239,0.0253 0.42515,0.0298 0.3163,0.006 0.41857,0.0162 0.46687,0.0452 0.0492,0.0295 0.15445,0.0388 0.51471,0.0456 0.34192,0.006 0.47276,0.0174 0.53404,0.0445 0.0592,0.0261 0.19119,0.0385 0.48766,0.0457 0.32112,0.008 0.41963,0.0178 0.46903,0.0481 0.11241,0.0687 0.14065,0.0475 0.14065,-0.10605 z"
       id="path45"
       inkscape:connector-curvature="0" />
    <path
       style="opacity:1;fill:#e580ff;fill-opacity:1;fill-rule:nonzero;stroke:none;stroke-width:0.05014297;stroke-miterlimit:4;stroke-dasharray:none;stroke-opacity:0"
       d="m 108.22158,283.91207 c 0,-0.0433 -0.007,-0.061 -0.0152,-0.0394 -0.009,0.0216 -0.009,0.0571 0,0.0788 0.009,0.0216 0.0152,0.004 0.0152,-0.0394 z"
       id="path47"
       inkscape:connector-curvature="0" />
    <path
       style="opacity:1;fill:#e580ff;fill-opacity:1;fill-rule:nonzero;stroke:none;stroke-width:0.1119501;stroke-miterlimit:4;stroke-dasharray:none;stroke-opacity:0"
       d=""
       id="path49"
       inkscape:connector-curvature="0" />
    <path
       style="opacity:1;fill:#e580ff;fill-opacity:1;fill-rule:nonzero;stroke:none;stroke-width:0.1119501;stroke-miterlimit:4;stroke-dasharray:none;stroke-opacity:0"
       d=""
       id="path51"
       inkscape:connector-curvature="0" />
    <path
       style="opacity:1;fill:#e580ff;fill-opacity:1;fill-rule:nonzero;stroke:none;stroke-width:0.1119501;stroke-miterlimit:4;stroke-dasharray:none;stroke-opacity:0"
       d=""
       id="path53"
       inkscape:connector-curvature="0" />
    <path
       style="opacity:1;fill:#e580ff;fill-opacity:1;fill-rule:nonzero;stroke:none;stroke-width:0.05014297;stroke-miterlimit:4;stroke-dasharray:none;stroke-opacity:0"
       d="m 108.25357,284.00219 c 0,-0.0557 -0.007,-0.0786 -0.0144,-0.0507 -0.008,0.0279 -0.008,0.0735 0,0.1014 0.008,0.0279 0.0144,0.005 0.0144,-0.0507 z"
       id="path55"
       inkscape:connector-curvature="0" />
    <path
       style="opacity:1;fill:#e580ff;fill-opacity:1;fill-rule:nonzero;stroke:none;stroke-width:0.02507149;stroke-miterlimit:4;stroke-dasharray:none;stroke-opacity:0"
       d="m 101.77279,283.00725 c 0.008,-0.0275 0.0275,-0.0778 0.0448,-0.11161 0.0173,-0.0339 0.0304,-0.0848 0.0292,-0.11328 l -0.002,-0.0518 -0.0124,0.0507 c -0.007,0.0279 -0.0289,0.0926 -0.049,0.1437 -0.0201,0.0512 -0.0338,0.10184 -0.0302,0.11266 0.004,0.0109 0.0126,-0.003 0.0198,-0.0304 z"
       id="path57"
       inkscape:connector-curvature="0" />
    <path
       style="opacity:1;fill:#e580ff;fill-opacity:1;fill-rule:nonzero;stroke:none;stroke-width:0.02507149;stroke-miterlimit:4;stroke-dasharray:none;stroke-opacity:0"
       d="m 101.79752,282.93246 c -9.7e-4,-0.0131 -0.005,-0.0158 -0.0101,-0.007 -0.005,0.008 -0.004,0.0179 0.002,0.0215 0.006,0.004 0.01,-0.003 0.009,-0.0148 z"
       id="path59"
       inkscape:connector-curvature="0" />
    <text
       xml:space="preserve"
       style="font-style:normal;font-variant:normal;font-weight:bold;font-stretch:normal;font-size:24.58173752px;line-height:1.25;font-family:'Segoe Print';-inkscape-font-specification:'Segoe Print, Bold';font-variant-ligatures:normal;font-variant-caps:normal;font-variant-numeric:normal;font-feature-settings:normal;text-align:center;letter-spacing:0px;word-spacing:0px;writing-mode:lr-tb;text-anchor:middle;fill:#217821;fill-opacity:1;stroke:none;stroke-width:1.31689119"
       x="49.927261"
       y="259.77612"
       id="text63"
       transform="scale(0.88037941,1.1358739)"><tspan
         sodipodi:role="line"
         id="tspan61"
         x="49.927261"
         y="259.77612"
         style="font-style:normal;font-variant:normal;font-weight:bold;font-stretch:normal;font-size:24.58173752px;font-family:'Segoe Print';-inkscape-font-specification:'Segoe Print, Bold';font-variant-ligatures:normal;font-variant-caps:normal;font-variant-numeric:normal;font-feature-settings:normal;text-align:center;writing-mode:lr-tb;text-anchor:middle;fill:#217821;stroke-width:1.31689119">Painters</tspan></text>
  </g>
</svg>
